# xmcd
#
# Track frame offsets:
#	151
#	14452
#	30083
#	43713
#	58422
#
# Disc length: 1045 seconds
#
# Revision: 0
# Processed by: cddbd v1.4PL0 Copyright (c) Steve Scherf et al.
# Submitted via: dBpowerAMP V4.0
#
DISCID=38041305
DTITLE=Western Starlite - Western Starlite
DYEAR=1999
DGENRE=Country
TTITLE0=Western Starlite - On My Way
TTITLE1=Western Starlite - Don't It Feel Great to Know Someone Needs You
TTITLE2=Western Starlite - Carry Me
TTITLE3=Western Starlite - Release Me
TTITLE4=Western Starlite - Devoted
EXTD=Daniel Fairbanks of Soulfood 76
EXTT0=
EXTT1=
EXTT2=
EXTT3=
EXTT4=
PLAYORDER=
